<svg width="600" height="174" viewBox="0 0 600 174" fill="none" xmlns="http://www.w3.org/2000/svg">
<path d="M52.7 38.2C57.5 34 60.1 28.3 60.1 21.9C60.1 8.99999 50.7 0.399994 33.5 0.399994H0V86.1H41C58.2 86.1 68.8 75 68.8 60.1C69.1 49.2 63.1 41.6 52.7 38.2ZM16.6 34V15.7H32.4C40.6 15.7 44.6 19.1 44.6 24.8C44.6 30.6 40.8 33.9 32.4 33.9L16.6 34ZM52.3 59.9C52.3 66.9 47.7 70.8 38.9 70.8H16.6V48.9H38.8C47.6 49 52.3 52.9 52.3 59.9ZM149.5 86.1H167.7L134.3 0.399994H118.5L84.3 86.1H102.3L108.5 70.2H143.3L149.5 86.1ZM114.7 55.3L126.1 26.3L137.5 55.3H114.7ZM206.8 0.300003H190.2V86.2H239V70.5H206.8V0.300003ZM301.1 66.5H312.3L333.7 27.1V86.5H351.7V0H328.3L306.5 39.6L284.1 0H261.5V86.7H278.9V27.7L301.1 66.5ZM436.6 86.1H454.8L421.4 0.399994H405.6L371.4 86.1H389.4L395.6 70.2H430.4L436.6 86.1ZM401.8 55.3L413.2 26.3L424.6 55.3H401.8ZM475.1 86.1H492.1V0.399994H475.1V86.1ZM583.4 0.399994V56.1L538.7 0.5H521.3V86.2H537.9V26.4L585.7 86.2H600V0.5H583.4V0.399994ZM208.1 157.8H198.9V173.5H189.9V130.2H208.3C217.7 130.2 222.9 135.4 222.9 144.2C222.9 152.9 217.7 157.8 208.1 157.8ZM207.7 149.7C211.5 149.7 213.6 147.7 213.6 143.9C213.6 140.3 211.5 138.1 207.7 138.1H199.1V149.7H207.7ZM261.5 166.4H245.6L242.9 173.4H234L249.9 130.1H257.1L272.5 173.4H263.8L261.5 166.4ZM258.8 158.6L253.7 144.2L248.6 158.6H258.8ZM318.8 156.8L327.5 173.4H317.3L309 157.8H303.4V173.4H294.5V130.1H312.8C322.1 130.1 327.3 135.3 327.3 144.1C327.3 150.6 324.2 155 318.8 156.8ZM312.2 149.6C315.9 149.6 318 147.6 318 143.8C318 140.2 315.7 138 312 138H303.5V149.6H312.2ZM344 130.1H355V173.4H344V130.1ZM391.5 147.1L399.9 149.4C406.5 151.4 410.1 155.1 410.1 160.9C410.1 168.7 404 173.4 394.3 173.4C383.4 173.4 378.1 168.7 377.1 158.4H386.5C387.5 163.7 389.6 165.6 394.7 165.6C398.8 165.6 401.3 164 401.3 161.3C401.3 159 399.5 157.6 396.2 156.8L387.8 154.3C381 152.3 377.8 148.8 377.8 142.6C377.8 135.2 384.2 130.1 393.4 130.1C403.6 130.1 410 136 410 145.3H400.4C400.6 140.4 397.9 137.9 392.6 137.9C388.5 137.9 386 139.5 386 142.2C386.2 144.7 388 146.1 391.5 147.1Z" fill="black"/>
</svg>
