<svg width="901" height="146" viewBox="0 0 901 146" fill="none" xmlns="http://www.w3.org/2000/svg">
<path d="M604.837 4.27979C606.132 5.93591 605.511 36.3689 605.493 40.8921C633.689 27.5701 653.089 44.355 652.45 73.5806C652.111 89.467 648.946 101.004 635.353 110.776C619.907 118.749 602.523 116.703 586.38 111.659C585.618 77.9323 586.316 41.3722 586.304 7.47705C590.798 6.35655 597.952 5.32856 602.693 4.49463L604.837 4.27979ZM632.811 79.4175C634.024 64.1732 631.317 49.8866 612.49 51.9683C610.205 52.3879 607.744 52.7934 605.494 53.3091V101.072C612.801 101.906 616.856 102.033 623.653 98.5815C629.746 93.5387 632.184 87.2234 632.811 79.4175Z" fill="#FEFEFE"/>
<path d="M442.351 45.6744C456.677 32.9912 482.611 30.6546 487.527 53.8017C489.267 61.9975 488.687 71.4387 488.675 79.8807L488.57 113.864L469.398 113.871C469.216 97.979 469.603 82.0333 469.404 66.1186C469.205 50.133 457.105 51.7628 445.421 55.0417L445.433 102.475V113.861L426.18 113.878C426.03 97.7551 426.354 81.5885 426.18 65.4505C426.01 49.7327 413.346 52.1607 402.254 55.0705L402.284 113.867L383.122 113.876L383.098 38.5246L396.704 38.4965L399.349 45.7658C405.653 40.2716 409.942 38.4818 417.908 36.6469C428.5 35.3049 435.66 37.1925 442.351 45.6744Z" fill="#FEFEFE"/>
<path d="M531.279 36.6396C570.057 32.8631 582.068 72.9412 565.867 101.966C561.408 109.961 551.84 113.911 543.109 115.599C513.631 118.11 499.463 99.4175 501.484 71.9023C502.861 53.2133 512.225 40.3921 531.279 36.6396ZM552.865 70.6718C551.945 58.7218 546.936 50.6006 534.022 51.2968C519.403 55.8158 519.209 76.7218 522.332 89.1191C524.641 98.2543 531.18 101.307 540.039 100.958C553.504 97.0332 553.779 82.524 552.865 70.6718Z" fill="#FEFEFE"/>
<path d="M324.743 37.3676C333.026 37.2294 340.941 38.6945 347.599 44.2963C363.31 57.5169 363.83 89.5924 351.32 105.01C345.419 112.282 337.308 114.666 328.387 115.464C320.049 115.447 312.53 114.252 305.694 108.662C289.779 95.6461 289.478 63.5373 301.827 48.1049C307.618 40.8668 315.812 38.099 324.743 37.3676ZM345.257 62.4721C342.408 51.1814 334.084 47.0591 322.947 47.7495C304.777 52.623 304.332 74.8308 307.845 90.143C310.452 101.503 319.799 106.19 330.957 104.966C348.726 99.5278 349.104 77.7134 345.257 62.4721Z" fill="#FFCE00"/>
<path d="M881.301 35.6543L900.32 41.0788L879.074 100.002C872.043 119.314 866.313 133.683 849.326 145.962C845.529 142.341 841.398 138.673 837.514 135.109C845.758 127.293 849.156 123.908 854.881 114.237L828.238 41.0371L846.414 36.02L847.106 36.2274C848.26 38.2464 851.688 50.861 852.561 53.8686C856.404 67.4626 860.365 81.0237 864.438 94.5514C870.074 77.0298 876.613 53.5029 881.301 35.6543Z" fill="#FEFEFE"/>
<path d="M100.023 37.2526C129.401 37.5005 127.313 59.8853 127.272 81.6744L127.209 113.945L118.02 113.94C117.337 111.487 116.868 108.202 116.427 105.638C104.106 115.278 85.8747 120.684 74.4055 106.638C72.183 102.75 71.003 98.3522 70.9807 93.8737C70.8899 68.1486 97.0266 70.051 115.065 70.1149C115.127 65.746 115.294 61.0993 113.723 56.9684C108.323 42.7682 90.11 48.4969 79.7278 52.816L75.9963 43.7457C84.4203 39.7038 89.0128 38.2998 98.2688 37.3492C98.8512 37.283 99.4368 37.2502 100.023 37.2526ZM114.999 78.7057C109.979 78.701 102.733 78.4869 97.8987 78.944C92.8497 79.5294 89.174 80.1355 85.7698 84.3385C81.6472 89.4288 81.5375 98.0765 86.9045 102.351C90.4862 105.203 94.5901 104.984 98.8801 104.389C99.3049 104.331 99.7299 104.266 100.154 104.196C106.439 102.147 109.839 100.713 114.982 96.3844L114.999 78.7057Z" fill="#FFCE00"/>
<path d="M247.252 37.3669C260.86 36.0794 272.644 42.2098 275.269 56.3942C276.766 64.4858 276.222 73.2033 276.192 81.4284L276.135 113.946L267.012 113.942L265.286 105.83C264.561 106.389 263.82 106.93 263.066 107.45C250.389 116.191 232.68 120.061 222.688 105.292C218.54 96.8644 218.689 84.6041 225.89 77.8933C235.769 68.6865 251.621 70.0364 264.085 70.1179C265.117 43.5813 248.233 44.9084 228.714 52.8317L225.059 43.7722C233.38 39.7466 238.077 38.2893 247.252 37.3669ZM264.162 78.6999C259.058 78.7116 252.08 78.526 247.123 78.8894C242.669 79.4801 236.787 80.6231 234.588 84.7673C227.474 98.1778 235.435 106.998 249.157 104.075C249.37 104.03 249.582 103.983 249.794 103.935C255.857 102.06 259.17 100.614 264.112 96.4177L264.162 78.6999Z" fill="#FFCE00"/>
<path d="M796.287 19.6987L796.949 19.7286C798.385 21.3449 797.752 35.5472 797.723 38.6972L820.434 38.6884V53.0483L797.758 53.043C797.699 65.7749 796.867 80.5222 798.643 93.0805C800.066 103.169 812.16 99.1332 818.846 97.1125C820.182 101.484 821.922 106.294 823.393 110.669L816.602 113.504C770.412 128.159 778.205 82.1291 778.322 53.0571L766.516 53.0383L766.51 39.9589L778.322 38.6673L778.281 23.4957L796.287 19.6987Z" fill="#FEFEFE"/>
<path d="M717.673 4.48353C719.624 4.1571 719.237 3.90452 720.632 4.64587C721.136 7.73375 720.831 32.8658 720.825 37.2406L720.802 113.858L704.858 113.873C703.153 113.852 703.024 114.126 701.753 113.278C701.179 110.059 701.454 86.1479 701.46 81.619L701.489 7.43252C706.218 6.32255 712.768 5.35849 717.673 4.48353Z" fill="#FEFEFE"/>
<path d="M665.518 38.4917L684.789 38.5362L684.777 113.789C679.961 114.108 670.656 113.859 665.535 113.867L665.518 38.4917Z" fill="#FEFEFE"/>
<path d="M737.471 38.4937L756.619 38.5429L756.59 113.859L737.506 113.868C736.832 90.2908 737.471 62.3575 737.471 38.4937Z" fill="#FEFEFE"/>
<path d="M11.6028 5.03027L12.5233 5.21898C13.077 7.23498 12.852 30.4916 12.8508 33.8561L12.7793 113.757L1.82289 113.752L0.587736 113.461C-0.417147 111.13 0.169957 17.8207 0.17523 7.5696L11.6028 5.03027Z" fill="#FFCE00"/>
<path d="M160.829 5.06104L161.675 5.49295C162.174 8.14833 161.862 31.405 161.861 35.9463L161.864 113.749L150.701 113.751L149.7 113.296C149.135 111.222 149.408 89.5455 149.407 85.3031L149.363 7.55057C153.099 6.66388 157.058 5.87388 160.829 5.06104Z" fill="#FFCE00"/>
<path d="M46.1934 36.8174C47.9658 37.656 54.2108 42.3889 56.1602 43.8142L31.9949 74.3988C40.9914 84.4712 51.2348 97.5388 59.9652 108.107L53.4947 113.187C52.252 114.306 51.8488 114.834 50.2404 115.347C47.7432 113.128 41.2961 104.82 38.9283 101.888L17.2598 75.0311C26.1414 62.6058 36.874 49.108 46.1934 36.8174Z" fill="#FFCE00"/>
<path d="M195.311 36.853C196.475 37.2908 203.737 42.6478 205.242 43.7297C198.719 52.8122 188.271 65.2757 181.13 74.2973C190.058 85.5922 199.944 96.8677 209.063 108.206L202.008 113.676C201.518 114.082 200.281 114.9 199.706 115.304C197.891 114.6 170.133 79.6918 166.268 74.9701C174.976 64.784 186.983 47.8519 195.311 36.853Z" fill="#FFCE00"/>
<path d="M674.957 0C677.699 1.98025 686.43 11.3336 689.137 14.1565L675.086 28.1197L661.1 14.1366C665.693 9.39902 670.311 4.6872 674.957 0Z" fill="#FEFEFE"/>
<path d="M747.068 0.0400391C751.24 3.58386 757.234 9.98643 761.248 14.0278L747.314 27.9388C743.225 24.5098 737.09 17.9555 733.152 13.9973L747.068 0.0400391Z" fill="#FEFEFE"/>
</svg>
