<svg width="2306" height="547" viewBox="0 0 2306 547" fill="none" xmlns="http://www.w3.org/2000/svg">
<path d="M261.663 0.336121C346.759 -4.2472 379.084 38.6196 434.366 93.6564L479.488 138.665C514.934 174.111 538.542 197.365 546.229 249.981C552.436 291.774 541.665 334.314 516.318 368.118C500.185 389.617 471.718 415.701 451.631 434.982C396.824 487.586 370.037 533.695 289.682 545.355L289.278 545.403C244.399 550.257 195.614 533.364 163.421 501.827C146.084 484.844 128.955 467.608 111.796 450.441L69.2334 408.061C31.6632 370.649 6.51828 344.924 0.844709 289.02C-3.49657 247.152 9.01558 205.28 35.6152 172.658C49.0375 156.234 74.2352 132.99 90.2031 117.04L136.404 70.8449C177.557 29.704 200.727 6.56111 261.663 0.336121ZM308.633 354.028C345.71 291.498 379.868 85.8339 256.323 99.3605C238.808 103.414 221.535 112.861 212.724 129.734C183.744 185.222 195.872 257.049 208.157 314.848C233.849 435.722 325.182 496.552 408.222 373.938C417.669 359.986 410.752 344.334 392.817 347.591C384.701 349.097 375.082 368.93 369.392 374.736C311.997 442.554 270.992 404.442 245.797 335.234C234.123 297.915 227.383 258.925 226.004 219.482C225.092 193.414 226.534 140.455 257.077 130.683C281.401 122.9 301.429 140.047 306.613 163.081C316.096 199.598 312.297 239.816 304.94 276.402C300.174 300.1 291.208 321.663 279.412 342.681C275.857 349.014 272.609 355.826 276.097 363.017C277.392 365.707 279.496 367.924 282.113 369.36C295.565 376.781 303.022 363.49 308.633 354.028ZM217.947 411.551C213.536 407.267 207.164 405.682 201.261 407.404C192.276 410.024 187.072 419.388 189.592 428.403C192.112 437.417 201.416 442.725 210.458 440.306C216.398 438.717 221.026 434.059 222.575 428.109C224.125 422.159 222.357 415.835 217.947 411.551Z" fill="#E60011"/>
<path d="M2272.08 168.771V245.45H2123.76C2123.64 253.815 2122.66 275.709 2125.07 282.283C2130.28 287.073 2258.21 284.791 2275.43 284.774V303.939L2244.43 303.938V347.774L2305.43 347.773V366.942L2274.42 366.938L2057.92 366.938V347.772H2119.92V303.938C2112.16 304.1 2099.04 305.399 2093.13 299.521C2082.87 289.335 2086.83 241.255 2086.92 226.427L2236.08 226.43V187.773L2086.92 187.78V168.77L2272.08 168.771ZM2156.92 303.938V347.774L2207.02 347.773L2207.09 303.938H2156.92Z" fill="#E60011"/>
<path d="M1100.75 145.938L1138.92 145.939V399.937L1100.75 399.938V331.626C1077.65 342.841 1008.41 337.021 980.409 336.635C975.359 336.565 970.438 328.639 968.093 324.424C967.41 307.805 967.918 287.782 967.917 270.957L967.92 171.688C967.749 169.102 967.607 168.457 968.744 166.007C973.169 164.882 996.889 165.341 1002.74 165.346L1077.09 165.428V183.938L1007.76 183.939C1007.78 204.825 1005.36 301.763 1009.21 314.107C1009.64 315.459 1011.09 316.598 1012.35 317.212C1021.2 321.555 1070.59 319.661 1081.68 318.259C1088.43 317.405 1094.37 315.775 1100.76 313.423L1100.75 260.104L1052.92 260.102V237.428L1100.75 237.426V145.938Z" fill="#E60011"/>
<path d="M693.178 150.426L896.086 150.429L896.085 211.939L732.748 211.937C732.69 214.3 732.644 216.664 732.61 219.027C732.53 224.848 731.965 230.361 736.439 234.817C740.329 238.692 882.299 236.787 899.756 236.77L899.76 255.107L815.918 255.112L815.923 279.934L920.755 279.936L920.754 298.448L900.419 298.45L671.92 298.455V279.938L776.076 279.936L776.087 255.104L714.843 255.503C685.16 255.47 692.93 214.884 693.083 193.425L856.407 193.428V168.775L693.081 168.776L693.178 150.426Z" fill="#E60011"/>
<path d="M1998.92 311.938C1998.95 340.211 1999.64 371.405 1998.71 399.449L1885.98 399.547C1868.34 399.568 1848.49 401.479 1831.22 398.797C1826.89 398.125 1823.01 396.236 1819.93 393.105C1810.15 383.175 1814.04 326.709 1814.09 311.939L1998.92 311.938ZM1850.76 330.775C1850.7 338.807 1849.36 374.36 1852.49 378.407C1860.99 382.581 1948.03 380.789 1962.92 380.773V330.771L1850.76 330.775Z" fill="#E60011"/>
<path d="M1900.46 140.32C1919.2 137.496 1947.06 144.528 1962.51 155.745C1986.76 173.353 1990.95 208.552 1969.6 230.296C1955.54 244.616 1937.7 249.073 1918.34 251.82C1883.39 253.294 1836.08 242.967 1832.13 200.734C1830.81 187.778 1834.78 174.838 1843.15 164.859C1857.36 147.936 1879.38 142.195 1900.46 140.32ZM1945.46 188.986C1941.53 168.412 1921.86 154.769 1901.21 158.303C1887.5 160.651 1876.13 170.223 1871.47 183.331C1866.82 196.439 1869.6 211.038 1878.76 221.508C1887.92 231.978 1902.02 236.685 1915.63 233.816C1936.13 229.494 1949.39 209.561 1945.46 188.986Z" fill="#E60011"/>
<path d="M1652.57 293.536C1685.08 288.35 1725.66 306.867 1730.98 342.414C1733.13 356.357 1729.6 370.583 1721.18 381.902C1708.78 398.344 1691.09 404.331 1671.53 407.091C1651.52 409.399 1627.76 404.801 1611.67 392.137C1600.43 383.461 1593.16 370.624 1591.5 356.524C1589.79 342.636 1593.73 328.641 1602.44 317.691C1614.92 302.102 1633.34 295.641 1652.57 293.536ZM1659.5 312.091C1615.86 318.999 1617.65 389.286 1665.94 388.145C1699.73 380.021 1704.06 336.005 1677.61 316.575C1672.82 313.057 1665.46 312.352 1659.5 312.091Z" fill="#E60011"/>
<path d="M1293.41 288.103L1475.92 288.105V353.107L1330.09 353.108C1329.92 360.724 1329.01 371.624 1331.78 378.409C1336.46 382.236 1378.2 380.843 1387.14 380.839L1479.75 380.772L1479.76 399.448L1368.54 399.51C1350.31 399.552 1331.36 399.583 1313.2 399.102C1286.63 398.399 1293.6 354.379 1293.75 334.938H1438.92V307.107H1293.41V288.103Z" fill="#E60011"/>
<path d="M1161.41 145.938H1199.76V399.937L1161.41 399.938V145.938Z" fill="#E60011"/>
<path d="M1307.41 138.775L1346.43 138.77V168.771H1402.08L1402.09 187.768L1348.56 187.778C1349.19 189.993 1349.85 192.199 1350.53 194.397C1360.1 224.865 1381.96 245.178 1409.58 259.533C1405.63 264.477 1401.12 269.644 1397.02 274.527C1369.66 263.823 1354.83 253.678 1334.62 232.069L1327.38 222.557C1310.82 246.387 1284.5 266.335 1257.21 275.877L1244.91 261.068C1247.54 259.701 1250.14 258.295 1252.72 256.849C1281.12 240.87 1297.11 218.55 1305.75 187.772L1252.75 187.774L1252.76 168.774L1307.41 168.769V138.775Z" fill="#E60011"/>
<path d="M1575.09 152.938H1615.09C1614.92 169.71 1614.1 186.034 1619.06 202.183C1628.6 233.201 1650.79 250.84 1678.04 265.529L1665.25 280.648C1641.97 272.517 1620.61 259.642 1604.14 241.125C1601.47 238.205 1598.1 233.717 1595.55 230.505C1579.4 254.465 1552.63 273.823 1525.53 283.397C1521.43 278.77 1517.11 273.202 1513.18 268.347C1542.19 254.287 1564.61 230.365 1572.39 198.541C1576.02 183.654 1575.19 168.167 1575.09 152.938Z" fill="#E60011"/>
<path d="M772.591 309.94L816.855 309.938C818.856 317.692 821.99 325.108 826.157 331.947C843.315 360.315 875.538 377.939 907.007 385.667L895.868 401.971C863.611 397.156 831.48 379.878 806.293 359.643C802.565 356.221 798.586 352.1 794.952 348.499C767.541 376.371 732.147 395.039 693.664 401.918L682.455 385.553C721.299 377.696 761.886 349.755 772.591 309.94Z" fill="#E60011"/>
<path d="M1705.76 145.771L1742.92 145.774V291.776L1705.75 291.773L1705.76 277.439L1705.75 213.447L1654.41 213.448V194.43L1705.76 194.431V145.771Z" fill="#E60011"/>
<path d="M1438.75 145.774L1475.92 145.77V272.771H1438.75V145.774Z" fill="#E60011"/>
<path d="M1785.15 271.432L2032.76 271.429V290.109L1784.76 290.11C1784.69 283.808 1784.52 277.718 1785.15 271.432Z" fill="#E60011"/>
</svg>
