<svg width="206" height="28" viewBox="0 0 206 28" fill="none" xmlns="http://www.w3.org/2000/svg">
<path d="M156.055 28L172.255 14.04L156.055 0H172.055L180.895 8.04L189.775 0H205.655L189.455 13.96L205.655 28H189.655L180.815 19.96L171.935 28H156.055Z" fill="white"/>
<path d="M105.538 28V0H155.138V8.08H117.938V10.56H150.818V17.44H117.938V19.92H155.138V28H105.538Z" fill="white"/>
<path d="M51.2803 28V0H63.5203L88.4803 15.44V0H100.88V28H88.6403L63.6803 12.56V28H51.2803Z" fill="white"/>
<path d="M0 28L16.2 14.04L0 0H16L24.84 8.04L33.72 0H49.6L33.4 13.96L49.6 28H33.6L24.76 19.96L15.88 28H0Z" fill="#C6FF4E"/>
</svg>
