<svg width="584" height="106" viewBox="0 0 584 106" fill="none" xmlns="http://www.w3.org/2000/svg">
<path d="M48.1165 0.214629C77.2017 -2.39341 102.889 19.0692 105.468 48.1344C108.047 77.1995 86.5403 102.844 57.4495 105.39C28.4025 107.933 2.7852 86.482 0.209739 57.4604C-2.36566 28.4387 19.0746 2.81875 48.1165 0.214629ZM43.3911 42.0324C43.6026 46.8515 43.7593 51.6731 43.8615 56.4959C42.9213 56.8457 41.6142 57.1751 41.1514 58.0024C41.6402 60.1286 50.3186 60.607 51.6094 58.8936C51.0701 57.91 50.3556 57.854 49.1378 57.4563C49.1597 55.9498 49.1271 53.814 49.2769 52.3626C57.6159 52.5486 65.896 53.7044 62.1314 41.764C60.9227 40.6944 60.1445 40.1702 58.823 39.2953C53.9729 39.1312 47.1209 38.6549 42.4748 38.9452L41.7928 39.5596C41.9135 40.6944 42.5296 41.0473 43.3911 42.0324ZM26.8316 47.0704C25.8636 48.4193 25.2133 48.8508 25.0265 50.3335C25.3531 51.5328 30.5486 54.6459 31.6341 54.6848L32.0556 54.2758C32.0766 47.2279 32.9628 41.0617 33.0665 34.7721C31.6081 32.8864 28.4677 28.9751 26.3825 27.8691C25.7251 32.7192 20.4813 33.8568 16.4698 35.6267C15.6349 35.9949 13.3633 35.2152 13.0674 36.1458C13.1643 38.2062 16.644 41.9366 17.842 43.3347C18.1861 42.2106 18.5033 40.8409 19.2591 39.9682L19.7649 39.8145C21.4224 40.7298 26.0068 45.5041 26.8316 47.0704ZM42.911 88.7732C43.492 92.7894 46.3575 97.7644 48.8369 100.98C49.5095 101.812 50.2653 102.712 50.8921 103.566C53.5201 103.645 55.2399 103.529 57.8707 103.305C58.4376 102.467 60.8979 99.0877 60.9217 98.4292C60.0364 98.288 59.6626 98.2019 58.8036 97.9429C57.5799 95.7663 62.6889 92.3924 63.9587 90.8774C64.5569 90.1638 64.3328 88.6858 64.9518 87.9434C65.707 86.9288 66.6462 86.9933 66.7543 85.9898C66.393 85.9015 66.1658 85.8003 65.8211 85.9212C63.0602 86.74 52.1108 92.3241 50.0105 90.4769C47.1441 87.9559 46.8852 88.7096 42.911 88.7732ZM50.2193 8.55551C50.1704 8.46877 50.1209 8.38235 50.0704 8.29655C48.8611 6.23104 45.717 5.3518 43.7308 6.50566L43.5399 7.24693L42.7844 7.94741C42.0683 7.83531 40.5559 7.50433 39.9988 7.9211C38.6685 8.91874 37.7528 10.3707 37.4256 12.0003C37.9226 12.5138 39.4601 12.4769 40.3422 12.5589C38.8208 13.2293 38.1812 12.9619 37.4429 13.9041C37.3514 14.9356 37.2523 15.6636 37.3905 16.6985C38.5068 17.5458 39.4394 16.3324 39.6249 17.3122C38.8042 18.6587 35.3837 18.5979 35.5153 20.1915C35.9299 20.5757 41.67 21.6428 42.2284 21.5276C41.5139 22.2478 41.2354 22.4661 41.0595 23.4884C42.0304 25.841 45.8539 24.3214 47.2553 22.7022L49.135 21.6453C49.3164 23.0457 49.3098 24.0467 50.25 25.0582C52.0346 26.0696 53.3772 25.7768 54.7037 24.1967C55.4959 23.253 55.2236 22.9173 55.0804 21.7841L55.5971 21.6325C55.6918 21.7693 55.7898 21.904 55.8908 22.0364C57.7579 24.4557 61.6259 23.4242 63.7101 21.7437C62.6528 20.7993 61.8192 19.9807 60.8318 18.9624L59.5485 18.4232L60.5494 17.7744L61.2094 18.2156L64.9461 21.2783C65.4322 20.08 66.1539 18.7116 66.7364 17.5355L67.3685 16.727C70.6261 14.4045 72.8921 15.6996 75.4869 12.248L76.0419 11.6017L76.4013 11.0512L76.0321 10.5383C72.4954 9.26318 70.255 8.48756 66.5211 7.97935C65.8051 6.98829 65.508 6.0127 64.3776 5.63252C63.3491 5.56154 62.3817 6.27137 61.4626 6.80824L61.5209 5.41893C58.4341 3.98288 52.5533 5.67461 50.5771 8.37546L50.2193 8.55551ZM79.8459 84.1247C78.8444 84.7817 77.8046 85.4909 76.757 86.0615C72.7846 95.8694 70.853 87.6556 68.3441 91.8901L68.5123 92.1224C69.4954 91.9981 70.3719 91.7745 71.2362 92.2364C71.7461 93.0286 71.6662 92.6767 71.4941 93.6715C70.1996 95.3605 68.0661 96.3923 65.9793 96.7023L64.0599 99.9661L62.3112 102.5C68.8358 101.003 78.6846 98.2426 82.7698 92.3579C84.954 89.2113 86.8242 79.5086 86.7857 75.5349L86.4162 74.8871C84.9643 76.1145 83.4865 77.3116 81.9838 78.4765C81.2756 80.8052 80.8961 81.9425 79.8459 84.1247ZM88.2705 88.4269C94.8461 82.9029 102.43 67.3528 102.688 58.6471C102.701 58.1909 102.698 58.0663 102.574 57.6207C99.2011 63.0989 94.5224 67.7802 89.8768 72.2073C89.911 76.593 89.7271 80.1185 88.8565 84.4623C88.7246 85.1202 88.0737 87.9753 88.2705 88.4269ZM68.56 68.3351C66.1755 69.2491 59.8706 71.1007 58.9515 72.9146C58.5269 74.9365 60.6528 79.156 61.1934 81.8896L61.3523 83.6056C63.3914 84.8374 66.6882 82.7416 68.156 81.3028C68.9702 78.2895 69.0846 71.8791 68.8737 68.6911L68.56 68.3351ZM78.3618 74.2235C78.8817 72.1447 78.9259 68.0439 79.8494 67.2157C80.9331 67.1355 81.1791 67.1136 82.148 67.6544C83.8164 69.4884 82.5708 71.8206 83.6322 73.1752C84.7324 73.1 86.105 71.5578 86.9361 70.7634C86.8534 69.1715 86.8506 66.6708 86.3081 65.2492C84.4047 63.5552 81.3997 65.6381 80.4188 63.8138C80.6598 59.5245 86.0399 56.8119 85.6406 53.7188C85.2943 53.5681 85.085 53.4423 84.7058 53.4407C81.7165 56.9716 81.3126 58.9211 76.7821 60.5494C74.8824 63.708 74.2164 64.2973 71.3378 66.6552C71.9539 72.6172 72.0375 75.0781 71.5919 81.0727C73.8539 78.7859 76.5715 76.6766 78.3618 74.2235ZM39.7697 73.8465C39.9123 72.5192 40.2122 70.8524 39.812 69.6146L39.3341 69.1308C38.5908 70.6554 38.8349 72.9322 38.8885 74.6795L41.8336 77.6432C40.6628 78.9277 39.8709 79.7813 38.5491 80.9396C40.2952 83.4606 41.6167 85.7417 44.8379 86.3924C46.0758 86.6426 49.4847 86.3978 50.4255 85.5016C51.4001 79.8264 47.2393 76.0056 47.2967 74.9631C47.3537 73.9295 48.846 73.3433 48.6223 71.9599C46.6934 70.7234 41.7684 73.0484 39.7697 73.8465ZM98.622 58.0534C99.9629 55.9373 101.537 54.2442 100.853 51.7329C100.25 49.5228 97.8962 46.3865 96.5132 44.5014C94.9097 47.9731 94.5763 48.093 93.8054 51.8622C92.7909 52.1897 91.5603 52.728 90.5854 52.4236C90.3754 52.0231 90.2303 51.9424 90.4033 51.5622C92.2604 47.4734 93.4246 47.2116 94.4929 42.5046C94.0134 41.584 94.1852 41.8686 93.2441 41.2439C90.7217 45.2232 91.3372 49.0663 87.6663 51.741C88.6105 53.9401 91.0163 60.9007 90.6594 63.5223C90.5024 64.6749 88.4804 65.8457 89.6929 67.8563C92.8887 66.3282 96.3393 60.9396 98.622 58.0534ZM101.39 46.125L102.234 47.5091L102.524 47.4405C102.92 45.2974 99.6216 33.2083 98.3966 31.5951C96.9398 34.0826 96.5352 35.5471 95.5847 38.2541C96.3616 39.5499 100.133 44.4626 101.39 46.125ZM82.6197 34.5943C81.682 32.8651 79.3336 28.5104 77.3646 28.3272C77.2465 28.9854 76.9657 31.2957 76.275 31.4886C63.6334 35.0211 67.8721 54.9879 81.6241 51.6192C83.9973 49.6662 85.8355 48.2778 86.787 45.1934C87.1683 43.7919 87.6738 41.583 86.8048 40.2359C84.9634 42.0255 84.8863 47.308 80.5 47.3184C74.4982 47.3324 71.4581 33.1999 79.3464 34.2908C80.3589 34.4308 81.6074 34.5385 82.6197 34.5943ZM93.5346 34.7389C94.4666 32.2489 96.3033 28.6263 95.4092 26.2449C94.8129 25.4161 94.2679 25.2517 93.2836 25.0876C92.9251 25.0297 92.5647 24.9858 92.2027 24.9564C92.0486 25.3077 91.8627 25.7311 91.6456 26.2261C92.2576 28.9394 92.4628 32.5329 92.6954 35.188L93.1093 35.2196L93.5346 34.7389Z" fill="#0032A1"/>
<path d="M49.4761 42.7383C53.6186 42.7552 60.5558 42.5917 56.3017 48.88C54.5036 49.1534 51.1144 49.1208 49.1859 49.1503C49.1339 47.4904 48.9831 44.2053 49.4761 42.7383Z" fill="#0032A1"/>
<path d="M26.4787 35.6797C26.8958 35.7598 26.8384 35.8021 27.1759 36.1131C27.2978 37.4204 27.6658 40.4859 26.4693 41.2096L25.7068 40.5746C25.1913 39.8396 23.767 38.4997 23.0723 37.8096L26.4787 35.6797Z" fill="#0032A1"/>
<path d="M61.521 5.41895L61.4627 6.80825L58.2127 9.85126C59.1748 10.5019 60.3829 11.3734 61.3484 11.9633C66.4276 10.5987 71.4529 11.8337 76.042 11.6017L75.487 12.248C72.6325 12.2054 64.6746 11.7288 62.6244 12.8802C62.1146 13.7751 62.1669 13.3925 62.4364 14.412C63.6153 15.8443 65.5849 16.2144 67.3687 16.727L66.7366 17.5355C64.5548 17.1015 63.6542 16.128 62.5138 16.3481C62.0886 16.9982 61.6639 17.5887 61.2095 18.2156L60.5496 17.7744C65.4824 11.0315 52.304 8.92376 47.7224 10.0604C43.0666 11.2156 37.7661 13.9292 43.2646 18.5848C48.1533 21.9892 54.3256 21.1506 59.5486 18.4232L60.8319 18.9624C60.041 19.2089 56.0836 21.0329 55.5973 21.6325L55.0805 21.7841C54.2475 21.5758 49.6393 21.2796 49.1351 21.6454L47.2555 22.7022L47.9045 21.8887C47.5068 21.1788 46.6337 20.8992 45.8509 20.777C43.9565 20.4824 43.7416 20.4639 42.2286 21.5276C41.6701 21.6428 35.93 20.5757 35.5154 20.1915C35.3838 18.598 38.8043 18.6587 39.625 17.3122C39.4395 16.3324 38.5069 17.5458 37.3907 16.6985C37.2525 15.6636 37.3515 14.9356 37.443 13.9041C38.1813 12.9619 38.8209 13.2293 40.3424 12.5589C41.9074 12.2539 43.8735 10.9651 43.9518 9.21247L42.7845 7.94742L43.5401 7.24694C45.9731 9.57633 46.98 9.78644 50.2194 8.55552L50.5773 8.37547C52.6659 8.48788 55.193 9.01269 57.2914 9.39377C58.7194 8.08801 60.1293 6.76316 61.521 5.41895Z" fill="#0032A1" fill-opacity="0.964706"/>
<path d="M147.723 17.4229C184.525 19.0662 182.905 85.7894 148.676 87.4493C114.202 88.9589 110.851 21.6088 145.392 17.6311C146.164 17.5422 146.948 17.4867 147.723 17.4229ZM149.109 77.3192C162.877 69.6419 160.446 25.9341 146.269 27.6554C132.9 36.8896 135.846 78.397 149.109 77.3192Z" fill="#0032A1"/>
<path d="M375.901 50.333C399.15 49.9566 422.792 50.5829 446.135 50.2484C446.245 53.3607 446.276 56.4754 446.226 59.5888C438.207 59.9201 427.63 59.581 419.348 59.6161L419.457 63.9285L444.985 63.9476C444.775 70.2049 444.559 84.0297 445.135 89.8542C441.472 90.0841 436.583 89.9306 432.782 89.9303L410.072 89.9237L393.312 89.9525C389.868 89.9644 386.286 90.054 382.861 89.8094C379.947 89.6012 378.793 88.4962 377.026 86.3506C376.409 82.0851 376.697 68.5982 376.888 63.8872C385.042 64.1145 394.067 63.9245 402.259 63.8869C402.225 62.6757 402.297 61.1676 402.322 59.932C397.085 59.2131 380.859 59.555 374.754 59.5566C374.779 57.8234 374.412 51.671 375.08 50.498L375.901 50.333ZM392.021 80.2317C403.475 80.2737 418.226 80.666 429.548 80.217C429.514 78.0163 429.404 75.3819 429.473 73.216C421.654 73.3444 413.832 73.3826 406.013 73.3306C401.798 73.3294 396.308 73.4897 392.178 73.299L392.021 80.2317Z" fill="#0032A1"/>
<path d="M376.758 15.6328C383.953 15.9387 392.671 15.7149 399.979 15.712L444.955 15.6992C444.861 19.8332 444.883 23.969 445.014 28.102C442.2 28.3356 436.945 28.2075 433.949 28.2194L433.971 37.0363C437.631 36.9953 441.292 37.0056 444.952 37.0676C444.955 39.0275 445.077 44.2082 444.786 45.8966L444.309 46.0842L376.394 46.0949C376.316 43.5297 376.573 39.6797 376.664 37.0247L387.131 36.9536C386.986 34.7213 387.162 30.5898 387.184 28.2166C384.448 28.0535 378.763 28.7743 376.939 27.5089C375.633 25.8472 376.567 18.2224 376.758 15.6328ZM400.693 36.9511C403.141 36.9736 419.7 37.3544 420.508 36.6564C420.596 34.095 420.493 30.5692 420.64 28.2379C414.448 28.0312 406.732 28.0892 400.505 28.2614C400.562 31.1012 400.565 34.1295 400.693 36.9511Z" fill="#0032A1"/>
<path d="M310.011 18.0581C317.178 17.5514 322.608 18.9768 328.522 22.5809C340.615 29.9536 341.806 46.0329 330.377 54.5598C325.093 58.5018 321.035 59.2856 314.793 60.5112C276.831 61.1803 276.161 20.323 310.011 18.0581ZM309.362 50.9456C310.622 51.1354 312.305 51.5018 313.502 51.2068C316.808 49.818 318.453 47.8929 319.841 44.4901C321.439 40.4824 321.389 36.0055 319.7 32.0347C318.105 28.259 315.018 25.2783 310.681 25.7815C303.229 28.5226 301.797 37.7475 304.107 44.4547C305.178 47.5629 306.88 49.0581 309.362 50.9456Z" fill="#0032A1"/>
<path d="M212.046 15.4024L275.326 15.3887C275.426 18.7639 275.361 22.5205 275.375 25.9259C270.591 25.8429 265.805 25.8375 261.021 25.9102C257.899 25.9493 253.841 26.1391 250.803 25.8332C255.866 38.205 265.076 42.1868 278.024 42.3311C278.191 44.9862 278.119 48.5627 278.127 51.2958C273.99 51.241 270.338 51.0324 266.206 50.7424L266.068 50.7315C258.055 50.0811 248.12 46.3279 242.739 40.0049C242.554 40.2093 242.364 40.4088 242.169 40.6039C232.465 50.2571 221.769 51.4958 208.976 51.4902C208.942 49.629 208.109 42.5406 210.301 42.3186C221.604 41.1732 232.262 38.5422 234.776 25.8422C228.826 25.6706 217.819 25.6537 212.043 26.0138L212.046 15.4024Z" fill="#0032A1"/>
<path d="M551.41 17.1655L551.654 17.2698C552.077 18.2045 551.968 26.0337 551.974 27.621C543.836 27.7478 535.459 27.6551 527.289 27.6996C532.563 39.8108 541.727 43.8972 554.609 44.3171C554.647 47.1312 554.619 49.9463 554.528 52.7591C540.451 52.8659 529.677 51.8282 519.217 41.9448C512.297 47.7205 509.182 49.5611 500.646 51.9813C497.174 52.7764 488.957 54.2531 485.679 52.7407C485.037 52.4435 485.391 45.2972 485.406 44.3315C492.301 43.7197 500.191 42.2213 505.657 37.6336C509.051 34.7854 509.925 32.0073 511.141 27.961C506.76 27.3178 493.736 27.6272 488.374 27.6241C488.443 24.1558 488.487 20.7267 488.722 17.2638C509.433 16.863 530.608 17.5178 551.41 17.1655Z" fill="#0032A1"/>
<path d="M177.299 15.3843C182.935 15.3505 188.571 15.3455 194.207 15.369L194.194 42.4639C196.459 42.3011 199.472 42.3424 201.793 42.3083C201.9 45.7574 201.63 50.0007 202.024 53.3474L194.196 53.3935V83.1397L194.205 90.3289C189.01 90.3179 182.418 90.1307 177.335 90.4616L177.299 15.3843Z" fill="#0032A1"/>
<path d="M485.317 58.9729L534.123 58.9704C536.821 58.9704 552.007 58.8082 553.843 59.204C554.925 60.868 554.552 68.9161 554.486 71.2326C547.143 71.0723 539.469 71.1562 532.101 71.1475L526.63 71.1747C526.586 78.1212 526.611 85.0677 526.702 92.0136C521.96 92.1824 517.091 91.924 512.18 92.1263C512.008 85.3664 512.136 77.933 512.171 71.1518C503.17 71.1039 494.17 71.1327 485.17 71.2383C485.251 67.1503 485.302 63.0618 485.317 58.9729Z" fill="#0032A1"/>
<path d="M208.917 57.3571C231.782 57.5894 255.218 57.4388 278.102 57.3408L278.166 69.3403C271.906 69.7227 262.071 69.4133 255.549 69.4067L250.284 69.408L250.321 90.4447C245.942 90.2381 239.838 90.4347 235.303 90.4213C235.656 83.502 235.674 76.5696 235.357 69.6488C227.376 69.1164 216.846 69.407 208.646 69.3961L208.917 57.3571Z" fill="#0032A1"/>
<path d="M558.531 14.4759C567.215 14.6127 567.002 12.4665 571.822 19.7243C587.425 43.2263 586.973 67.421 569.584 89.7016L568.055 91.5475C564.752 91.613 561.446 91.6042 558.143 91.5218C558.96 89.9606 560.148 88.1566 561.079 86.6257C571.834 68.9069 572.091 45.6713 564.416 26.7428C562.777 22.6934 560.402 18.56 558.531 14.4759Z" fill="#0032A1"/>
<path d="M473.243 14.5421L482.28 14.4551C480.322 17.3863 478.454 21.653 476.991 24.9581C467.846 45.6173 469.401 70.0634 481.249 89.3417C481.594 89.9013 481.651 90.5992 481.45 91.2092C480.726 91.8042 479.212 91.6163 478.203 91.5953C476.376 91.6595 474.437 91.5596 472.6 91.5001C469.717 89.0467 464.998 80.6222 463.346 76.9733C456.471 61.7749 455.85 49.0664 461.46 33.4593C462.892 29.4754 469.595 16.1735 473.243 14.5421Z" fill="#0032A1"/>
<path d="M355.921 63.883C356.429 64.5306 356.237 87.0099 356.237 89.9208C351.531 89.8707 346.827 89.9108 342.123 90.0414C342.001 84.8991 342.095 79.4428 342.098 74.2771H306.238L289.836 74.2755L289.864 63.9732C295.85 63.7474 303.17 63.9303 309.243 63.93C324.803 63.9951 340.362 63.9794 355.921 63.883Z" fill="#0032A1"/>
<path d="M342.074 15.4226L356.147 15.416C356.251 17.9076 356.157 21.0245 356.147 23.5631L364.953 23.5136L364.944 37.2951C362.293 37.0077 358.88 37.095 356.157 37.0922L356.16 42.9684C358.883 42.9675 362.271 43.0599 364.919 42.7192L364.95 52.4535L364.894 53.2623C363.907 53.7715 357.724 53.5704 356.144 53.5466L356.213 61.224C352.111 61.1617 346.072 61.0061 342.121 61.3471C341.883 46.2175 342.077 30.5825 342.074 15.4226Z" fill="#0032A1"/>
</svg>
