<svg width="495" height="158" viewBox="0 0 495 158" fill="none" xmlns="http://www.w3.org/2000/svg">
<path d="M0.150659 92.2474L494.833 92.2114C494.858 95.9094 494.855 99.6074 494.822 103.305L0.158204 103.32C0.078423 99.6936 0.144549 95.8878 0.150659 92.2474Z" fill="#002878"/>
<path d="M315.909 0.233749C331.035 0.377854 346.204 0.0868356 361.334 0.205428C366.678 0.247475 373.24 -0.0917395 377.574 3.52672C382.631 7.74901 382.188 15.0557 382.131 21.0199C382.045 30.215 382.038 39.4353 382.135 48.6322C382.163 52.9442 382.379 57.432 381.765 61.7005C381.315 64.8135 380.323 66.8024 378.383 69.2074C372.086 74.6687 358.818 73.2015 350.728 73.1986L315.898 73.18C315.478 49.413 315.805 24.0734 315.909 0.233749ZM359.888 14.5023C350.58 14.4603 341.247 14.5318 331.935 14.5336L331.896 58.8353L353.07 58.9027C356.053 58.9084 362.882 59.0505 365.466 58.5531C366.414 54.7771 366.364 19.4429 365.365 15.6332C364.244 14.4702 361.573 14.5099 359.888 14.5023Z" fill="#002878"/>
<path d="M409.693 0.338835C415.145 0.044507 422.484 0.225655 428.047 0.224577L461.563 0.228483L461.533 73.1963L445.423 73.2041C445.178 66.3813 445.38 58.4013 445.38 51.4902C445.441 50.6579 445.465 50.7101 445.045 49.9951C441.717 49.6638 435.87 49.8505 432.355 49.8652L411.505 49.9101C411.34 57.4612 411.473 65.573 411.477 73.1679L395.344 73.1943L395.322 34.0468C395.322 29.4537 395.315 24.6727 395.329 20.0918C395.361 8.39811 396.343 1.58519 409.693 0.338835ZM445.355 14.5351C434.778 14.5333 423.321 14.3186 412.82 14.6474C410.589 16.8274 411.444 31.7861 411.469 35.6806L444.341 35.7109L445.11 35.5107C445.664 33.361 445.376 17.9322 445.355 14.5351Z" fill="#002878"/>
<path d="M0.148513 0.249044L16.1802 0.224609C16.3222 9.58381 16.1971 19.269 16.2 28.6544C27.2206 28.9441 39.2478 28.7137 50.3478 28.7223L50.3766 0.265934L66.4812 0.24582C66.5086 6.96541 66.9836 71.305 66.1272 73.0157L65.2004 73.2068L50.3665 73.1637L50.3561 42.9608L16.2309 42.9838L16.1759 73.1903L0.174033 73.2004C-0.147607 49.1722 0.0579501 24.3121 0.148513 0.249044Z" fill="#002878"/>
<path d="M235.336 0.253403L269.869 0.214228C285.232 0.202369 303.107 -3.26704 301.616 18.169C301.35 21.9722 301.569 27.2317 301.573 31.1535L301.594 73.1569L285.584 73.2047C285.164 59.9409 285.563 43.6641 285.566 30.198C285.581 26.482 286.044 18.3591 284.743 15.4995C282.727 13.8769 256.022 14.5256 251.458 14.5364C250.815 32.7477 251.494 54.638 251.375 73.1569C246.078 73.2428 240.583 73.1659 235.267 73.163C235.036 49.6516 234.856 23.5944 235.336 0.253403Z" fill="#002878"/>
<path d="M205.079 0.250924L221.117 0.236908L221.111 14.3855L221.139 44.182C221.146 47.121 220.985 50.884 221.15 53.7457C222.453 76.3238 207.897 73.185 190.72 73.1728L154.899 73.2296L154.896 0.245177L170.854 0.222168C171.252 19.2741 170.875 39.7024 170.875 58.8668L191.225 58.9128C194.478 58.9178 201.054 59.137 203.9 58.5002C205.618 56.0112 205.049 39.9205 205.049 36.2614L205.079 0.250924Z" fill="#002878"/>
<path d="M72.3711 0.308246C78.3047 0.0954957 85.1109 0.237098 91.1621 0.168457C97.2747 10.2461 105.038 22.0921 110.602 32.2491L130.107 0.212304L149.213 0.266197L132.962 25.1651C130.49 29.0299 119.679 44.3762 119.416 47.6821C118.912 54.0197 119.307 66.283 119.146 73.183L102.117 73.1791L102.069 46.3201C100.083 42.8468 96.7791 38.1242 94.5248 34.6731L79.7095 11.9879C78.2925 9.81695 73.0535 2.07565 72.3711 0.308246Z" fill="#002878"/>
<path d="M477.605 0.256362L494.805 0.218262C495.021 9.47864 494.845 19.4502 494.848 28.757L494.812 73.17C489.418 73.3478 483.104 73.1872 477.638 73.1876L477.605 0.256362Z" fill="#002878"/>
<path d="M103.469 123.933C107.161 123.7 122.723 123.474 125.083 124.498C131.037 127.085 128.712 148.742 127.893 154.578C127.69 156.022 124.881 157.169 123.683 157.579C118.18 157.974 104.935 158.301 100.497 156.676C96.3539 155.16 97.5982 130.923 98.7055 126.977C99.2538 125.023 101.863 124.307 103.469 123.933ZM121.079 131.377C115.878 131.244 110.675 131.244 105.475 131.381C105.225 137.206 105.297 144.192 105.394 150.092C110.171 150.477 116.094 150.387 120.955 150.326C121.398 144.734 121.184 137.098 121.079 131.377Z" fill="#002878"/>
<path d="M339.614 123.926C343.035 123.674 360.403 123.33 362.276 124.832C367.016 128.634 365.295 149.043 364.199 154.998C363.975 156.22 361.098 157.258 360.07 157.574C353.63 158.038 343.298 158.365 337.063 156.784C334.494 155.627 333.882 148.26 334.255 146.103C335.578 138.503 330.612 126.84 339.614 123.926ZM357.492 131.326C352.403 131.315 347.041 131.225 341.974 131.344C341.794 136.601 341.68 145.086 341.971 150.326C347.017 150.333 352.472 150.441 357.485 150.301C357.722 143.979 357.722 137.647 357.492 131.326Z" fill="#002878"/>
<path d="M174.031 123.897C177.36 123.736 194.453 123.412 196.112 124.526C201.417 128.091 199.105 148.536 198.548 154.75C198.438 155.972 195.145 157.301 194.184 157.646C190.562 157.804 173.071 158.296 171.25 156.765C166.823 153.045 168.18 132.501 169.624 126.492C169.935 125.195 172.898 124.206 174.031 123.897ZM191.721 131.384C186.528 131.269 181.333 131.25 176.14 131.337C176.091 137.654 176.088 143.976 176.135 150.294C180.05 150.33 188.082 150.581 191.671 150.247C191.92 144.432 191.989 137.198 191.721 131.384Z" fill="#002878"/>
<path d="M55.4063 123.8L65.3991 123.768C67.6398 131.584 71.0744 140.015 73.516 148.026C75.5755 140.404 79.1553 131.617 81.5649 123.797L91.4789 123.815L91.5375 157.765L84.0075 157.74L84.0331 148.702C84.1046 144.788 83.9119 140.281 83.8232 136.317C81.6784 143.739 79.3616 150.423 76.874 157.743L70.1425 157.787C68.1735 150.998 65.191 143.458 63.0308 136.454C62.6923 142.905 62.9216 151.156 62.9187 157.736L55.3848 157.776L55.4063 123.8Z" fill="#002878"/>
<path d="M306.838 123.764C326.467 123.251 330.024 122.629 326.891 143.541C326.635 145.248 323.426 146.384 321.909 146.933L329.205 157.681L323.951 157.79C323.642 157.793 322.2 157.79 322.046 157.725C319.552 156.647 315.344 149.125 313.917 146.85L304.361 146.868C304.376 150.498 304.35 154.128 304.289 157.758L296.814 157.75L296.843 123.807C299.556 123.797 304.214 123.833 306.838 123.764ZM320.228 131.016C314.948 130.945 309.669 130.934 304.39 130.98C304.368 133.895 304.361 136.81 304.372 139.721C307.247 139.742 318.193 139.943 320.317 139.562C320.605 136.587 320.716 133.996 320.228 131.016Z" fill="#002878"/>
<path d="M205.684 123.811C213.895 123.775 224.382 123.211 232.462 124.501C236.91 125.529 236.65 131.196 236.562 134.581C236.393 141.007 237.708 144.497 230.868 147.005L238.036 157.733L231.772 157.779C228.794 157.757 224.525 149.596 222.748 146.826L213.23 146.926L213.201 157.768L205.67 157.71L205.684 123.811ZM229.17 130.981C223.931 130.977 218.423 130.891 213.207 131.009L213.24 139.713C218.527 139.713 224.006 139.79 229.276 139.689C229.314 136.871 229.431 133.755 229.17 130.981Z" fill="#002878"/>
<path d="M430.686 123.757C437.499 123.717 439.45 126.087 439.558 133.044C439.687 141.679 441.197 147.659 430.606 148.141L416.245 148.102L416.221 157.736L408.788 157.754L408.781 123.812C416.073 123.783 423.361 123.796 430.686 123.757ZM432.137 131.017C426.847 130.948 421.557 130.934 416.267 130.98L416.26 141.008C420.313 141.026 428.457 141.266 432.158 140.899C432.306 137.403 432.417 134.51 432.137 131.017Z" fill="#002878"/>
<path d="M264.91 123.948C271.774 123.434 283.108 123.793 290.335 123.811C290.343 126.312 290.246 128.792 290.166 131.29C282.479 131.261 274.789 131.279 267.102 131.34C267.001 137.654 267.001 143.969 267.098 150.279C272.359 150.34 277.412 150.401 282.67 150.225C282.842 148.285 282.814 146.01 282.839 144.04C280.1 143.947 277.369 144.547 274.803 143.728C273.901 142.729 274.207 142.865 274.146 141.104C274.164 139.847 274.034 138.682 274.58 137.586C277.718 137.162 286.699 137.417 290.271 137.435C290.332 142.29 290.662 150.204 289.66 154.24C288.269 159.849 265.111 157.88 261.966 156.54C258.15 154.908 259.102 130.945 260.504 126.622C260.967 125.18 263.566 124.314 264.91 123.948Z" fill="#002878"/>
<path d="M371.346 123.811L378.903 123.815L378.921 151.174C384.147 151.213 389.376 151.177 394.601 151.066C395.039 142.847 394.766 132.231 394.784 123.804L402.252 123.8L402.245 130.751C402.245 135.063 402.148 140.191 402.263 144.461C402.64 158.455 400.38 157.826 387.956 157.779L371.324 157.718L371.346 123.811Z" fill="#002878"/>
<path d="M133.36 123.793L164.014 123.819L163.959 131.319L152.368 131.283C152.252 136.17 152.332 141.367 152.326 146.276C152.351 150.1 152.313 153.923 152.213 157.747H144.839L144.843 131.297L133.195 131.283C133.132 128.879 133.277 126.223 133.36 123.793Z" fill="#002878"/>
</svg>
