<svg width="1727" height="446" viewBox="0 0 1727 446" fill="none" xmlns="http://www.w3.org/2000/svg">
<path d="M767.078 212.001C768.204 211.972 769.33 211.952 770.455 211.942L885.998 211.885C924.021 211.875 969.262 201.561 966.37 254.083C965.417 271.496 966.285 292.477 966.252 310.209C936.569 309.67 905.351 310.123 875.559 310.228L875.727 325.444L927.698 325.356C975.586 325.531 966.387 366.848 966.218 401.973C960.011 401.685 952.861 401.852 946.57 401.857C946.266 391.818 946.924 381.546 946.713 371.449C946.469 359.97 947.801 356.747 934.587 356.356C922.672 356.002 910.765 356.179 898.866 356.182L829.348 356.244L765.823 356.293L765.906 325.454L856.037 325.443L856.096 310.193C826.24 309.833 795.724 310.155 765.817 310.148L765.899 279.213C825.544 278.459 886.766 279.169 946.545 279.155C946.308 271.163 948.256 249.106 944.15 243.876C936.704 241.781 896.109 242.521 886.277 242.52L765.831 242.565C765.789 237.507 764.823 214.657 767.078 212.001Z" fill="#4F4D4E"/>
<path d="M1190.48 212.021L1210.05 211.854L1210.06 401.93C1152.89 400.781 1095.39 403.135 1038.26 401.18C1032.73 400.991 1027.21 398.664 1022.53 395.942C1017.43 391.973 1011.91 384.408 1011 377.921C1008.38 359.04 1009.65 338.47 1009.9 319.28L1029.42 319.211L1029.45 332.845L1190.44 332.805L1190.48 212.021ZM1190.49 372.874L1190.47 361.592C1137.58 361.587 1081.97 360.664 1029.33 361.655C1029.43 366.627 1028.86 372.54 1035.65 372.709C1052.59 373.129 1069.6 372.934 1086.56 372.925L1190.49 372.874Z" fill="#4F4D4E"/>
<path d="M1525.23 325.592C1548.19 324.198 1578.03 326.123 1601.8 325.395C1623.61 325.557 1645.48 324.988 1667.26 325.736C1680.98 326.207 1694.7 335.711 1696.73 349.753C1700.17 373.436 1698.67 394.666 1671.45 401.244C1649.67 403.126 1619.87 401.228 1596.97 401.8C1574.28 401.635 1551.58 402.267 1528.91 401.459C1513.93 400.925 1500.74 392.342 1498.42 376.837C1494.93 353.502 1497.99 330.985 1525.23 325.592ZM1674.95 370.752C1677.19 368.158 1678.57 365.917 1678.31 362.273C1678.18 360.508 1677.31 358.879 1675.91 357.788C1671.34 354.238 1570.32 357.206 1556.37 356.224C1551.36 355.871 1524.97 356.164 1519.89 356.582C1516.61 360.997 1515.7 364.921 1519.27 369.444C1523.82 371.91 1592.06 371.13 1602.92 370.954C1624.85 370.597 1653.54 371.87 1674.95 370.752Z" fill="#4F4D4E"/>
<path d="M1009.86 211.982C1010.55 211.966 1011.24 211.957 1011.93 211.953L1103.69 211.858C1151.72 211.836 1177.96 205.502 1173.9 265.982C1173.64 269.777 1173.84 275.208 1173.82 279.198L1073.84 279.237C1060.86 279.298 1044.97 278.266 1032.02 279.776C1029.9 280.022 1029.23 281.615 1029 283.486C1030.6 286.519 1032.24 288.641 1036.06 288.694C1051.05 288.898 1066.05 288.779 1081.04 288.77L1173.81 288.723L1173.83 317.59L1051.35 317.621C1006.49 317.493 1009.02 293.898 1009.8 257.319C1009.85 255.082 1009.86 252.672 1009.9 250.416C1025.25 250.418 1150.59 251.248 1154.05 249.721C1155.75 243.983 1149.47 240.429 1144.69 240.516C1132.82 240.735 1120.99 240.897 1109.12 240.839L1009.79 240.846C1009.71 231.225 1009.74 221.603 1009.86 211.982Z" fill="#4F4D4E"/>
<path d="M1253.81 211.958L1254.82 211.948L1373.21 211.895C1394.9 211.883 1449.29 204.408 1452.65 235.217C1455.14 258.161 1453.9 286.556 1453.88 310.145L1272.9 310.139L1253.75 310.18L1253.8 279.143L1434.33 279.163C1434.43 272.196 1436.77 249.168 1431.94 244.23C1428.68 240.899 1268.17 242.594 1253.76 242.601L1253.81 211.958Z" fill="#4F4D4E"/>
<path d="M1497.62 211.985C1551.13 210.997 1607.72 211.929 1661.45 211.845L1661.38 242.63C1637.36 242.506 1613.35 242.52 1589.34 242.672L1589.24 249.788C1589.18 257.562 1588.35 266.859 1594.37 272.829C1600.57 278.971 1609.43 279.425 1617.67 279.384C1632.19 279.311 1646.74 279.245 1661.27 279.132L1661.25 310.196L1643.1 310.139C1618.13 310.187 1597.77 314.103 1579.5 293.3C1563.27 311.459 1547.6 310.32 1525.61 310.219L1497.62 310.188L1497.61 279.146C1514 279.266 1530.64 279.816 1547.01 279.277C1572.27 278.443 1569.71 260.96 1569.77 242.591L1497.61 242.602L1497.62 211.985Z" fill="#4F4D4E"/>
<path d="M1253.8 325.427L1352.67 325.381C1369.14 325.373 1390.86 326.381 1406.89 325.371C1463.14 321.827 1454.08 359.297 1453.88 401.915C1447.72 401.68 1440.59 401.852 1434.36 401.855C1434.26 393.294 1436.17 362.347 1431.74 357.745C1423.24 355.328 1381.28 356.186 1369.93 356.186L1253.76 356.371L1253.8 325.427Z" fill="#4F4D4E"/>
<path d="M544.522 249.577C554.693 248.542 562.149 251.431 568.234 259.566C569.468 294.159 566.569 330.981 565.096 365.662C564.286 384.745 565.857 427.723 555.128 441.828C552.706 443.573 551.91 444.334 548.86 444.22C531.325 437.273 535.449 337.62 535.304 319.596L535.253 280.326C535.319 266.745 532.383 257.808 544.522 249.577Z" fill="#918F82"/>
<path d="M75.3673 44.0918C80.0783 45.4857 92.908 48.6348 96.0415 51.6112L95.1418 53.6451C97.0357 54.8729 95.7228 52.7048 99.8033 52.9759C101.461 54.4442 107.872 65.2114 110.757 68.6671C110.996 77.9316 115.017 81.0215 115.811 87.5946C117.46 101.258 116.942 107.417 120.625 121.113C118.818 117.569 116.973 114.044 115.092 110.54L114.429 111.309C115.502 114.859 115.948 115.44 113.529 118.228C110.232 122.028 112.074 122.684 112.663 126.833L109.387 125.659L110.875 128.535C108.623 128.72 104.548 123.553 100.616 121.793C100.489 123.882 102.379 126.601 103.477 128.548C103.478 128.804 103.143 129.197 102.966 129.463C99.3311 124.412 76.355 112.499 70.2009 107.418C64.3793 102.611 55.9733 91.3051 50.4643 87.8121L47.9985 88.7345C45.8681 86.8999 39.5923 82.9352 36.9476 81.092L33.793 71.458C34.6285 67.872 36.2556 63.0229 37.3509 59.3984C45.7938 52.0728 54.8157 49.8585 65.2524 45.3593C67.4298 44.4206 69.0573 47.6176 75.3673 44.0918Z" fill="#25378D"/>
<path d="M416.494 252.942C421.768 252.463 432.448 253.992 433.666 260.263C440.115 293.502 435.481 329.799 432.831 363.387C431.353 382.117 432.308 421.504 426.993 437.683C424.892 440.126 423.019 442.205 419.903 443.052C418.524 442.811 417.425 442.857 416.467 441.713C410.416 434.493 407.77 281.96 409.803 261.864C410.248 257.475 413.286 255.558 416.494 252.942Z" fill="#918F82"/>
<path d="M58.0552 252.932C63.0159 252.477 73.7291 253.804 74.993 259.872C82.8747 297.713 75.2343 337.898 73.9854 376.338C73.5027 391.196 72.2377 424.436 68.5577 437.677C66.3849 440.046 65.0334 441.87 61.999 442.978C59.0268 442.875 60.0799 443.267 57.7634 441.392C50.6565 425.48 51.5647 320.293 51.3273 297.095C51.2301 287.592 51.2009 271.794 51.4208 261.725C51.5115 257.577 54.8875 255.504 58.0552 252.932Z" fill="#918F82"/>
<path d="M171.079 252.917C176.891 252.124 187.612 254.488 188.624 261.344C195.735 309.489 186.223 359.154 185.07 407.643C184.946 412.891 182.781 434.504 181.181 438.156C179.094 440.486 176.884 442.747 173.714 443.105C172.998 442.827 171.689 442.529 171.224 441.946C163.307 432.005 164.349 318.659 164.3 297.882C164.272 286.083 163.138 273.18 164.405 261.519C164.866 257.276 167.979 255.405 171.079 252.917Z" fill="#918F82"/>
<path d="M297.591 252.954C306.575 252.212 308.56 253.138 314.898 259.599C321.716 288.797 316.043 332.315 314.076 362.268C313.19 375.766 312.216 429.634 307.608 438.429C305.531 440.677 303.809 442.457 300.809 443.061C300.049 442.816 298.696 442.586 298.149 442.038C289.628 433.506 290.322 280.398 290.959 259.429C292.883 256.954 295.24 255.026 297.591 252.954Z" fill="#918F82"/>
<path d="M427.148 31.408C432.896 31.0142 445.745 30.3131 449.023 35.8942C455.317 46.6081 476.611 38.2162 473.07 54.9497C470.566 66.7814 463.554 76.2432 458.838 87.0979C449.92 92.1624 446.29 98.9367 438.613 106.558C429.037 103.314 431.463 105.042 421.907 109.555C421.468 109.277 419.654 107.942 419.593 107.649C418.341 101.653 408.801 102.272 406.715 98.9637C398.23 85.5011 399.337 68.2838 406.38 54.4914C412.136 43.2213 417.909 39.3537 427.148 31.408Z" fill="#049C5D"/>
<path d="M194.917 13.4007C197.82 13.1419 204.176 14.3328 206.662 15.9134C211.69 19.1087 214.657 27.2293 221.446 25.2596C222.349 24.9977 231.52 30.8502 232.8 31.6418C238.703 48.7203 236.395 91.5814 226.611 106.498C224.282 107.492 223.003 106.574 220.054 105.833C218.359 107.54 216.9 112.37 211.955 111.623C210.824 108.33 210.746 106.788 207.54 105.573C198.015 101.963 193.315 91.7205 189.772 82.8446C181.862 63.0363 179.513 37.7027 189.549 18.2336C191.154 15.1133 191.716 14.6401 194.917 13.4007Z" fill="#F99C0D"/>
<path d="M538.453 61.5088C550.169 61.6278 557.951 64.7742 563.761 75.2184L563.729 74.9464C595.885 86.5303 573.007 103.518 559.795 121.582C551.466 124.524 545.536 130.398 538.552 135.99C535.079 137.713 532.431 134.339 529.532 134.164C526.353 134.515 523.607 136.771 520.488 136.926C519.658 137.214 517.675 135.69 517.544 134.805C516.48 127.674 510.62 129.236 505.225 123.055C501.023 96.9434 509.853 76.5208 533.105 64.6669C534.806 63.7997 536.766 62.5042 538.453 61.5088Z" fill="#25378D"/>
<path d="M1542.49 46.7518L1556.4 46.6465L1556.38 88.7361L1556.21 100.183L1470.64 100.188L1470.65 46.7296L1484.31 46.651L1484.26 60.7277L1542.54 60.7075L1542.49 46.7518ZM1484.28 87.8829L1542.56 87.871L1542.55 72.742C1523.41 72.7288 1503.33 72.4421 1484.28 72.7938V87.8829Z" fill="#4F4D4E"/>
<path d="M774.168 46.2888L859.967 46.2734L859.95 88.8083C832.415 88.0512 801.948 88.7012 774.181 88.7037L774.168 46.2888ZM787.879 76.8842L846.121 76.8635L846.129 58.2389L787.85 58.2086L787.879 76.8842Z" fill="#4F4D4E"/>
<path d="M914.239 69.3667C926.028 68.9908 937.724 74.8084 941.957 86.3C944.149 92.1815 943.888 98.6961 941.24 104.386C937.462 112.526 931.307 115.997 923.355 118.907L923.346 132.765C932.942 132.621 942.699 132.662 952.312 132.625L952.186 145.078L919.577 145.055L880.365 145.078L880.314 132.772L909.491 132.687L909.525 119.377C899.718 115.054 891.952 110.21 889.784 98.6497C888.638 92.3678 890.088 85.8919 893.798 80.696C898.951 73.3862 905.849 70.8376 914.239 69.3667ZM918.75 107.878C925.868 106.64 930.733 100.009 929.78 92.8551C928.827 85.7014 922.393 80.575 915.209 81.241C910.292 81.6962 906.026 84.8043 904.078 89.3385C902.138 93.8727 902.838 99.1067 905.899 102.975C908.96 106.843 913.893 108.725 918.75 107.878Z" fill="#4F4D4E"/>
<path d="M1114.12 98.7115L1216.18 98.6533L1216.06 111.187L1193.46 111.243L1193.52 121.254L1208.18 121.305L1208.22 150.282C1208.32 152.253 1208.56 153.575 1207.53 155.28C1204.36 156.927 1198.3 156.143 1194.24 156.05L1194.17 133.264L1121.23 133.237L1121.26 121.285L1136.8 121.299L1136.9 111.167L1114.33 111.177L1114.12 98.7115ZM1150.67 121.266L1179.78 121.284L1179.84 111.162L1150.55 111.191L1150.67 121.266Z" fill="#4F4D4E"/>
<path d="M1017.29 44.729L1032.1 44.6934L1032.14 56.4743L1053.12 56.4578L1053.12 68.3059L1029.07 68.2839C1037.79 90.1311 1046.29 114.727 1054.53 136.97L1042.74 141.598L1025.41 94.2159L1025.04 93.8812L1024.13 94.0987C1018.58 108.015 1012.01 128.055 1007.01 142.579L994.627 137.987L1020.14 68.3103L995.563 68.2874L995.521 56.4681L1017.44 56.457L1017.29 44.729Z" fill="#4F4D4E"/>
<path d="M1158.68 40.9372C1173.77 37.3014 1188.95 46.5967 1192.57 61.688C1196.18 76.7793 1186.86 91.9399 1171.76 95.5315C1156.69 99.1164 1141.57 89.8229 1137.96 74.7621C1134.36 59.7016 1143.62 44.5656 1158.68 40.9372ZM1169.19 82.9676C1177.36 80.8047 1182.22 72.4093 1180.03 64.2455C1177.83 56.0815 1169.41 51.2609 1161.25 53.495C1153.14 55.7155 1148.36 64.0689 1150.55 72.1825C1152.73 80.2961 1161.06 85.1167 1169.19 82.9676Z" fill="#4F4D4E"/>
<path d="M1397.12 108.021C1410.87 107.266 1423.73 112.67 1428.45 126.52C1430.59 132.738 1430.11 139.561 1427.12 145.418C1422.73 154.081 1416 157.41 1407.38 160.249C1400.08 161.316 1393.19 160.343 1386.72 156.688C1380.55 153.231 1376.01 147.455 1374.1 140.642C1372.42 134.275 1373.34 127.498 1376.67 121.813C1381.52 113.411 1388.37 110.399 1397.12 108.021ZM1405.28 148.233C1412.87 146.171 1417.43 138.438 1415.56 130.802C1413.69 123.166 1406.08 118.411 1398.4 120.083C1393.24 121.205 1389.11 125.028 1387.59 130.071C1386.08 135.114 1387.42 140.582 1391.09 144.356C1394.76 148.13 1400.2 149.614 1405.28 148.233Z" fill="#4F4D4E"/>
<path d="M960.719 44.7057L974.751 44.6992L974.76 91.521L989.019 91.4687L989.011 104.544L974.709 104.569L974.726 139.533L974.701 155.892L960.686 155.853L960.719 44.7057Z" fill="#4F4D4E"/>
<path d="M1462.45 114.975C1495.75 114.35 1530.92 114.863 1564.4 114.83L1564.39 127.305L1535.16 127.281L1520.38 127.307L1520.36 155.91L1506.5 155.865L1506.4 127.294L1462.44 127.299L1462.45 114.975Z" fill="#4F4D4E"/>
<path d="M1062.43 44.9997L1075.23 44.8037L1075.19 155.128C1072.01 155.135 1064.6 155.626 1062.43 154.163L1062.43 100.169L1047.36 100.187L1047.32 87.5532L1062.4 87.5271L1062.43 44.9997Z" fill="#4F4D4E"/>
<path d="M1084.38 44.7265L1097.84 44.7021L1097.83 155.931L1084.43 155.867L1084.38 44.7265Z" fill="#4F4D4E"/>
<path d="M766.143 100.277L867.944 100.264L867.952 112.219L850.429 112.199L824.466 112.229L824.408 129.636L810.425 129.578L810.406 112.233L766.062 112.205L766.143 100.277Z" fill="#4F4D4E"/>
<path d="M1236.35 120.508L1250.34 120.473L1250.36 141.703L1324.92 141.677L1324.9 153.872C1296.59 153.001 1264.97 153.715 1236.42 153.745L1236.35 120.508Z" fill="#4F4D4E"/>
<path d="M774.168 121.296L788.242 121.255L788.249 141.698L861.19 141.654L861.038 153.906C833.76 152.89 801.812 153.695 774.182 153.712L774.168 121.296Z" fill="#4F4D4E"/>
<path d="M1251.24 74.2077L1264.89 74.1982V99.2921L1300.55 99.2938L1300.55 111.291L1277.96 111.273L1228.58 111.292L1228.59 99.2896L1251.22 99.3073L1251.24 74.2077Z" fill="#4F4D4E"/>
<path d="M1309 44.7286L1323 44.7031L1323.03 74.4243L1337.24 74.3427L1337.18 87.4075C1332.92 87.1832 1327.35 87.2684 1323 87.2229L1322.99 103.28L1322.99 117.904L1309.11 117.854L1309 44.7286Z" fill="#4F4D4E"/>
<path d="M1367.12 71.7297L1381.04 71.6777L1381.01 91.9263L1416.73 91.8985L1416.71 104.038L1395.81 104.058C1378.77 103.971 1361.74 103.994 1344.71 104.126V91.9516L1367.14 91.9128L1367.12 71.7297Z" fill="#4F4D4E"/>
<path d="M1233.58 47.081L1294.47 46.9785L1294.43 88.5689L1280.8 88.5293L1280.86 59.0652L1233.62 59.0853L1233.58 47.081Z" fill="#4F4D4E"/>
<path d="M1349.6 47.0909C1369.75 46.808 1390.48 47.0221 1410.68 46.9904L1410.64 82.5841L1396.76 82.571C1396.72 74.669 1396.78 66.7667 1396.96 58.8666L1349.65 58.8725L1349.6 47.0909Z" fill="#4F4D4E"/>
<path d="M1425.12 44.7308L1439.06 44.6924C1438.84 52.3437 1439.05 60.7146 1439.1 68.4211L1453.13 68.3596C1453.2 72.4818 1453.09 76.9 1453.06 81.0501L1438.93 81.068L1438.98 90.0012L1439.07 106.131L1425.17 106.149L1425.12 44.7308Z" fill="#4F4D4E"/>
<path d="M908.909 43.9385L923.97 43.877L923.961 55.7032L950.026 55.6723L949.993 67.851C942.681 67.4509 932.773 67.7365 925.268 67.7272C911.363 68.0124 896.724 67.7235 882.709 67.8086L882.633 55.6958L908.9 55.6804L908.909 43.9385Z" fill="#4F4D4E"/>
<path d="M5.07541 179.414C19.616 176.252 25.7601 180.036 37.8178 178.777C43.2384 178.212 61.6846 171.608 69.0853 170.481C71.1166 170.173 77.3223 166.934 79.5308 166.342C83.234 165.35 87.8046 165.389 91.2671 164.723C92.6357 164.459 98.6186 159.347 100.977 159.041C108.918 158.013 115.631 158.886 123.707 157.327C135.796 166.673 148.997 168.61 157.488 179.633L165.438 181.979C213.571 167.38 214.714 159.813 265.735 177.971C273.791 171.21 278.341 174.695 286.644 172.706C298.888 169.774 315.918 164.763 328.294 166.248C339.288 167.567 349.792 166.184 355.496 175.778C357.097 178.473 367.76 180.51 370.888 180.952C388.586 181.716 398.038 180.791 413.941 174.526C415.548 172.11 416.565 170.077 419.273 168.971C423.196 168.427 427.787 171.5 431.182 171.261C448.318 170.054 453.682 164.964 465.302 180.614C465.543 180.938 477.19 186.806 479.994 188.751C487.371 186.005 530.923 174.264 536.963 176.223C540.17 180.014 540.98 181.364 545.763 182.472L547.549 182.057C547.817 180.296 547.74 179.929 547.48 178.173C556.008 181.479 558.547 193.333 567.817 191.46L568.109 191.141C568.944 190.236 571.655 187.645 572.694 187.444C586.628 184.747 629.724 175.005 641.204 186.206C640.115 187.583 640.247 187.21 638.282 187.841L642.758 188.301L643.12 189.572C638.277 195.986 639.339 191.152 639.129 198.943C639.084 200.625 628.663 203.767 627.044 204.384C614.892 209.928 605.933 214.537 592.412 216.35C590.501 221.696 589.865 222.857 586.763 227.566C581.026 225.622 576.275 224.676 570.49 223.165C555.397 219.221 540.655 212.045 525.468 208.727C520.615 207.666 508.715 216.057 504.344 218.651L501.6 224.198C498.01 224.474 491.31 224.954 487.953 224.623C476.612 223.501 453.683 213.209 444.829 206.887C428.539 209.43 412.036 214.368 400.512 227.208C384.681 231.192 384.857 225.479 369.659 223.838C367.821 223.639 366.935 226.503 361.93 225.779C359.849 223.618 359.525 219.389 359.232 219.185C354.251 215.71 351.342 215.404 346.081 211.099C344.414 211.025 340.683 210.844 339.398 210.184C325.754 202.9 309.204 216.908 297.023 222.28C286.031 227.128 276.16 225.117 264.632 224.279C261.049 224.019 251.761 223.683 249.024 222.057C248.217 220.673 247.477 219.423 246.592 218.088C239.076 216.154 229.532 213.333 222.431 211.912C220.354 211.496 200.675 216.769 199.446 218.184C191.81 226.975 190.48 229.101 180.147 235.256C156.042 235.978 147.708 227.02 126.333 216.341L126.041 213.772L124.368 212.662L122.453 214.564C119.452 213.612 104.79 208.843 104.406 216.126C103.76 228.342 91.8928 227.922 83.3801 234.021C82.142 234.12 77.7854 234.51 76.8761 234.275C69.3699 232.344 63.6071 236.773 55.7623 234.335C49.1857 232.291 47.0478 230.044 39.9546 229.825C31.0126 219.148 5.62176 220.679 0 194.032V185.896L5.07541 179.414Z" fill="#918F82"/>
<path d="M478.172 247.241C488.184 248.121 496.971 248.793 502.776 258.124C505.301 296.606 499.769 338.226 498.96 376.949C498.575 395.418 498.393 414.019 494.793 432.177C493.595 437.847 490.355 442.428 485.886 446H479.741C478.012 443.216 471.965 431.055 471.783 428.301C470.88 414.622 467.728 399.751 467.022 386.305C465.893 364.825 467.175 343.009 467.162 321.497L467.351 276.165C467.484 265.311 464.761 255.348 475.198 248.958C476.171 248.355 477.163 247.782 478.172 247.241Z" fill="#918F82"/>
<path d="M355.813 446C352.373 439.529 349.072 432.759 347.781 425.493C345.819 414.442 343.856 399.138 343.294 388.063C342.549 373.363 342.226 264.81 344.639 257.115C345.703 253.725 347.689 250.801 350.912 249.166C355.747 246.713 362.861 247.577 367.79 249.257C371.892 250.655 376.435 253.437 378.447 257.427C382.45 265.362 376.034 358.869 375.397 372.871C374.845 384.977 375.029 397.255 374.074 409.32C373.446 417.256 372.986 427.917 370.162 435.398C368.505 439.784 365.6 442.837 362.236 446H355.813Z" fill="#918F82"/>
<path d="M230.383 247.229C238.345 247.98 247.499 248.614 253.032 255.357C253.782 256.286 254.486 257.251 255.141 258.25C256.257 294.866 253.214 331.837 251.571 368.414C250.609 389.823 251.127 411.487 246.904 432.536C245.806 438.005 242.316 442.485 238.12 446H231.849C223.711 431.938 222.811 423.7 221.759 407.854C221.345 401.623 219.458 394.665 219.342 388.263C218.821 346.472 219.219 304.62 219.501 262.829C219.555 254.891 222.983 251.447 229.45 247.734C229.757 247.558 230.068 247.39 230.383 247.229Z" fill="#918F82"/>
<path d="M112.066 446C103.664 432.899 103.17 423.473 102.03 408.573C101.427 401.988 99.6227 395.059 99.5223 388.482C98.8958 347.377 99.6522 306.194 99.6319 265.099C99.621 241.382 125.004 244.08 135.156 258.009C136.535 294.746 133.254 331.967 131.703 368.701C130.814 389.754 131.255 411.054 127.207 431.761C126.044 437.713 122.921 442.196 118.271 446H112.066Z" fill="#918F82"/>
<path d="M321.984 0H327.73C334.969 3.78674 347.717 15.4114 351.755 22.1342C350.685 47.6022 342.497 66.0051 331.548 88.8392C330.179 91.6947 326.52 99.082 324.397 101.059L323.627 100.697C323.148 99.1747 322.95 98.9024 322.098 97.5998C320.206 98.9943 319.817 101.731 319.178 104.088C317.481 104.244 315.199 101.399 312.187 100.772L311.83 104.577L310.768 105.326C309.05 103.961 309.294 101.326 308.197 98.3232C307.147 99.6578 307.58 99.5094 306.158 99.9015C301.418 93.0951 300.07 74.8858 300.457 66.457C300.713 61.594 303.288 55.1498 303.417 50.5525C304.021 28.9753 303.252 14.6162 321.984 0Z" fill="#DC1C30"/>
<path d="M1678.17 212.022L1697.73 211.868L1697.76 244.7L1727 244.682V275.566L1697.69 275.624L1697.74 310.142L1678.19 310.174L1678.17 212.022Z" fill="#4F4D4E"/>
</svg>
