<svg width="1174" height="329" viewBox="0 0 1174 329" fill="none" xmlns="http://www.w3.org/2000/svg">
<path d="M445.654 0.418918C453.603 -0.272164 465.029 -0.0261759 472.949 0.563392C482.754 1.29352 475.156 21.1514 473.691 26.7767C434.111 34.5367 412.187 61.0956 382.871 84.6978C356.445 105.979 328.613 129.641 300.928 149.108C327.676 187.477 349.482 230.742 378.262 267.833C392.666 286.401 402.685 294.235 425.605 297.029C424.307 306.899 423.779 310.659 419.658 319.692C415.742 320.457 412.305 320.809 408.359 320.922C373.33 321.917 339.463 324.653 304.736 316.902C238.994 302.231 214.834 232.731 180.332 182.7C174.365 210.888 146.696 255.23 156.885 283.406C159.775 291.411 167.383 294.603 174.746 297.271C172.275 304.327 170.928 311.637 169.404 318.955C147.747 322.806 101.808 320.435 77.998 320.371C53.5615 319.125 21.7744 325.212 0 317.797C1.4502 310.161 2.87498 304.447 4.96483 296.946C10.3633 296.811 17.8418 296.293 22.3115 293.023C55.3349 268.863 75.7041 154.613 86.5225 113.192C91.3203 94.8229 99.5498 76.5639 102.452 57.8549C103.639 50.2071 104.668 42.6218 99.6445 36.0546C94.9756 29.952 87.417 27.8855 80.1641 26.9504C81.4365 20.7805 83.2783 9.5953 86.6113 4.50198C95.4053 -0.221394 193.027 5.37364 208.252 1.35403C210.479 0.765443 240.938 2.85333 246.025 3.16666L246.826 4.21011C247.051 9.9867 244.287 18.9298 242.92 25.0568C197.49 41.9971 207.744 103.249 187.627 145.043C228.906 116.02 269.883 87.5187 307.705 53.9241C325.332 38.2654 331.914 34.403 303.75 25.1563C306.729 16.633 307.705 11.5709 309.404 2.84452C356.875 2.89626 398.389 3.76598 445.654 0.418918Z" fill="#C50F2B"/>
<path d="M531.182 3.44639C544.59 2.28678 566.387 2.71336 580.098 2.71336L672.48 3.1038L751.455 2.79436C758.711 2.78362 783.564 2.27507 788.975 3.83781C789.678 10.9897 770.752 82.0512 767.881 88.9444C754.971 96.1725 749.844 71.7689 737.285 70.7264C725.254 69.7259 713.77 70.0588 701.709 70.0773L630.977 70.2159C628.291 87.0567 620.234 111.205 616.094 129.242C649.971 130.017 692.578 126.584 724.824 131.062C721.484 154.813 712.891 181.385 708.008 205.942C694.082 200.78 687.842 191.467 671.748 191.052C644.922 191.859 623.867 188.796 596.777 192.558C593.125 218.994 579.727 242.053 577.842 268.542C576.797 283.308 583.838 291.989 596.348 298.649C595.068 305.899 593.447 311.791 591.523 318.844C584.541 318.65 573.066 318.822 566.494 318.789C552.881 318.721 453.164 329.931 446.426 317.943C449.404 310.916 452.803 296.325 454.902 288.335C459.131 272.205 463.447 256.096 467.842 240.009C482.295 185.726 497.568 131.664 513.652 77.8383C520.41 54.5328 524.639 32.3235 495.781 24.6943L500.762 4.90471C510.703 4.09357 521.182 3.84464 531.182 3.44639Z" fill="#C50F2B"/>
<path d="M982.345 1.46215C1001.12 -1.44762 1044.69 2.44802 1064.19 5.07667C1071.86 6.11037 1094.38 11.8382 1102.91 13.8538C1097.84 39.0285 1088.47 72.0795 1079.51 95.7002C1059.95 91.1809 1055.72 78.6408 1040.49 70.915C1013.92 57.4428 975.714 59.1685 947.931 67.6479C917.794 76.6213 885.46 95.8544 870.724 124.814C847.521 170.431 867.032 225.562 911.944 248.662C962.022 274.424 1013.15 263.5 1063.55 247.975L1058.89 270.231C1055.51 285.93 1052.11 301.725 1047.02 316.971C1029.62 319 1012.31 322.716 994.708 324.758C926.505 332.457 847.052 329.437 790.362 286.009C729.513 239.402 732.609 146.434 779.591 90.9681C831.515 29.6667 905.265 9.4057 982.345 1.46215Z" fill="#C50F2B"/>
<path d="M1173.46 57.2549C1172.97 59.0842 1172.17 61.0432 1171.43 62.7924C1168.22 70.4636 1162.01 76.4852 1154.24 79.4496C1145.92 82.6708 1136.65 82.376 1128.55 78.6326C1120.79 75.1147 1114.79 68.61 1111.9 60.5971C1098.16 21.4163 1160.07 -2.73647 1173.46 43.2342V57.2549ZM1145.62 74.9937C1159.3 73.1 1168.92 60.5581 1167.19 46.8584C1165.46 33.1578 1153.03 23.3948 1139.3 24.9576C1130.27 25.9854 1122.49 31.7854 1118.94 40.1428C1115.38 48.5002 1116.59 58.1237 1122.12 65.3371C1127.64 72.5505 1136.61 76.2382 1145.62 74.9937Z" fill="#C50F2B"/>
<path d="M1127.56 32.9945C1135.56 33.0052 1150.6 31.095 1155.21 38.7701C1157.11 45.6614 1153.68 48.9968 1148.05 51.8968C1151.27 56.2287 1155.55 61.1854 1156.2 66.4524L1153.94 67.982C1139.04 65.734 1148.89 61.8862 1138.08 54.1272C1134.84 55.9691 1138.88 61.7154 1134.53 67.0606C1131.55 67.3524 1131.1 67.3963 1128.19 66.6564C1126.83 61.7613 1127.5 39.2611 1127.56 32.9945Z" fill="#C50F2B"/>
</svg>
